<?xml version="1.0" standalone="no"?><!DOCTYPE svg PUBLIC "-//W3C//DTD SVG 1.1//EN" "http://www.w3.org/Graphics/SVG/1.1/DTD/svg11.dtd"><svg t="1544697406994" class="icon" style="" viewBox="0 0 1024 1024" version="1.1" xmlns="http://www.w3.org/2000/svg" p-id="1022" xmlns:xlink="http://www.w3.org/1999/xlink" width="128" height="128"><defs><style type="text/css"></style></defs><path d="M790.016 440.32H234.496a27.136 27.136 0 1 0 0 53.76h555.52a27.136 27.136 0 0 0 0-53.76z m-116.736-161.28a35.84 35.84 0 0 0-35.84-35.84h-250.88a35.84 35.84 0 0 0-35.84 35.84v17.92h322.56z m-250.88 448h62.464v62.464a27.136 27.136 0 1 0 53.76 0V727.04h62.464a27.136 27.136 0 0 0 0-53.76h-61.952v-62.464a27.136 27.136 0 0 0-53.76 0v62.464H422.4a27.136 27.136 0 1 0 0 53.76z m376.32 179.2H225.28A71.68 71.68 0 0 1 153.6 834.56V368.64a71.68 71.68 0 0 1 71.68-71.68h71.68v-35.84a71.68 71.68 0 0 1 71.68-71.68h286.72a71.68 71.68 0 0 1 71.68 71.68v35.84h71.68A71.68 71.68 0 0 1 870.4 368.64v465.92a71.68 71.68 0 0 1-71.68 71.68z" p-id="1023"></path></svg>