<?xml version="1.0" standalone="no"?><!DOCTYPE svg PUBLIC "-//W3C//DTD SVG 1.1//EN" "http://www.w3.org/Graphics/SVG/1.1/DTD/svg11.dtd"><svg t="1547449299117" class="icon" style="" viewBox="0 0 1024 1024" version="1.1" xmlns="http://www.w3.org/2000/svg" p-id="1015" xmlns:xlink="http://www.w3.org/1999/xlink" width="64" height="64"><defs><style type="text/css"></style></defs><path d="M972.8 883.2c-12.8-70.4-102.4-128-249.6-179.2-32-12.8-57.6-19.2-83.2-32h-12.8c-32 25.6-89.6 89.6-115.2 147.2-25.6-64-102.4-128-102.4-134.4 38.4-25.6 51.2-44.8 51.2-70.4 12.8 6.4 32 12.8 51.2 12.8 89.6 0 166.4-102.4 166.4-230.4v-38.4s-12.8-76.8-121.6-83.2c-83.2-6.4-115.2-51.2-128-64h243.2c64 32 140.8 121.6 140.8 281.6 0 51.2-6.4 102.4-19.2 140.8 0 6.4-6.4 12.8-6.4 12.8 0 6.4 0 12.8 6.4 12.8s12.8 0 12.8-6.4 6.4-12.8 6.4-12.8c12.8-44.8 19.2-96 19.2-153.6 0-134.4-51.2-224-108.8-268.8V102.4c0-32-25.6-64-64-64H358.4c-32 0-64 25.6-64 64V224c-51.2 44.8-96 134.4-102.4 262.4 0 128 38.4 198.4 57.6 236.8-108.8 44.8-179.2 102.4-198.4 160v89.6c0 6.4 6.4 12.8 12.8 12.8h896c6.4 0 12.8-6.4 12.8-12.8v-89.6zM544 300.8c89.6 6.4 102.4 64 102.4 64v32c0 115.2-64 204.8-140.8 204.8-76.8 0-140.8-89.6-140.8-204.8 0-57.6 12.8-140.8 32-179.2 12.8 25.6 57.6 76.8 147.2 83.2zM320 102.4c0-25.6 19.2-38.4 38.4-38.4h294.4c19.2 0 38.4 19.2 38.4 38.4v96c-6.4-6.4-19.2-12.8-25.6-12.8H358.4h-6.4c-12.8 0-19.2 6.4-32 12.8V102.4z m-51.2 608c-19.2-32-57.6-96-51.2-217.6 0-160 76.8-249.6 140.8-281.6h19.2c-25.6 44.8-32 128-32 185.6 0 89.6 38.4 166.4 96 204.8v6.4c0 19.2-6.4 57.6-134.4 96-19.2 6.4-25.6 6.4-38.4 6.4 6.4 0 0 0 0 0zM947.2 960H76.8v-70.4c12.8-57.6 102.4-121.6 230.4-160 32-12.8 57.6-19.2 76.8-32 0 0 0 6.4 6.4 6.4 0 0 102.4 89.6 108.8 160 6.4-38.4 70.4-134.4 115.2-166.4 19.2 12.8 44.8 19.2 76.8 32 134.4 44.8 217.6 102.4 230.4 160 25.6 6.4 25.6 38.4 25.6 70.4z" p-id="1017"></path></svg>