<?xml version="1.0" encoding="UTF-8"?>
<svg width="45px" height="22px" viewBox="0 0 45 22" version="1.1" xmlns="http://www.w3.org/2000/svg" xmlns:xlink="http://www.w3.org/1999/xlink">
    <!-- Generator: Sketch 54.1 (76490) - https://sketchapp.com -->
    <title>形状结合</title>
    <desc>Created with Sketch.</desc>
    <g id="云HIS体温监测" stroke="none" stroke-width="1" fill="none" fill-rule="evenodd">
        <path d="M35,22 C29.4771525,22 25,17.5228475 25,12 C25,6.4771525 29.4771525,2 35,2 C40.5228475,2 45,6.4771525 45,12 C45,17.5228475 40.5228475,22 35,22 Z M21.1851852,20.5 C21.6333333,20.5 22,20.8375 22,21.25 C22,21.6625 21.6333333,22 21.1851852,22 L0.814814815,22 C0.366666667,22 0,21.6625 0,21.25 C0,20.8375 0.366666667,20.5 0.814814815,20.5 L4.48148148,20.5 L4.48148148,13 C4.48148148,9.7 7.41481481,7 11,7 C14.5851852,7 17.5185185,9.7 17.5185185,13 L17.5185185,20.5 L21.1851852,20.5 Z M6.11111111,20.5 L15.8888889,20.5 L15.8888889,13 C15.8888889,10.525 13.6888889,8.5 11,8.5 C8.31111111,8.5 6.11111111,10.525 6.11111111,13 L6.11111111,20.5 Z M8.55555556,12.7272727 C9.0037037,12.7272727 9.37037037,13.1363636 9.37037037,13.6363636 L9.37037037,19.0909091 C9.37037037,19.5909091 9.0037037,20 8.55555556,20 C8.10740741,20 7.74074074,19.5909091 7.74074074,19.0909091 L7.74074074,13.6363636 C7.74074074,13.1363636 8.10740741,12.7272727 8.55555556,12.7272727 Z M11,3.63636364 C10.5518519,3.63636364 10.1851852,3.22727273 10.1851852,2.72727273 L10.1851852,0.909090909 C10.1851852,0.409090909 10.5518519,0 11,0 C11.4481481,0 11.8148148,0.409090909 11.8148148,0.909090909 L11.8148148,2.72727273 C11.8148148,3.22727273 11.4481481,3.63636364 11,3.63636364 Z M17.1925926,5.5 C16.9074074,5.86363636 16.3777778,5.86363636 16.0518519,5.5 C15.7259259,5.13636364 15.7259259,4.59090909 16.0518519,4.22727273 L17.1925926,2.95454545 C17.5185185,2.59090909 18.0074074,2.59090909 18.3333333,2.95454545 C18.6592593,3.31818182 18.6592593,3.86363636 18.3333333,4.22727273 L17.1925926,5.5 Z M4.97037037,5.5 L3.82962963,4.22727273 C3.5037037,3.86363636 3.5037037,3.31818182 3.82962963,2.95454545 C4.15555556,2.59090909 4.64444444,2.59090909 4.97037037,2.95454545 L6.11111111,4.22727273 C6.43703704,4.59090909 6.43703704,5.13636364 6.11111111,5.5 C5.78518519,5.86363636 5.2962963,5.86363636 4.97037037,5.5 Z M0.814814815,11.3636364 C0.366666667,11.3636364 0,10.9545455 0,10.4545455 C0,9.95454545 0.366666667,9.54545455 0.814814815,9.54545455 L2.44444444,9.54545455 C2.89259259,9.54545455 3.25925926,9.95454545 3.25925926,10.4545455 C3.25925926,10.9545455 2.89259259,11.3636364 2.44444444,11.3636364 L0.814814815,11.3636364 Z M19.5555556,11.3636364 C19.1074074,11.3636364 18.7407407,10.9545455 18.7407407,10.4545455 C18.7407407,9.95454545 19.1074074,9.54545455 19.5555556,9.54545455 L21.1851852,9.54545455 C21.6333333,9.54545455 22,9.95454545 22,10.4545455 C22,10.9545455 21.6333333,11.3636364 21.1851852,11.3636364 L19.5555556,11.3636364 Z M34.976,6.352 C33.76,6.352 32.768,6.752 32.032,7.584 C31.312,8.352 30.944,9.376 30.928,10.656 L32.672,10.656 C32.704,9.728 32.896,9.04 33.28,8.56 C33.648,8.064 34.192,7.824 34.912,7.824 C35.584,7.824 36.112,7.984 36.464,8.304 C36.816,8.624 36.992,9.104 36.992,9.744 C36.992,10.416 36.72,11.04 36.208,11.616 C35.888,11.952 35.344,12.384 34.576,12.928 C33.28,13.824 32.416,14.512 32,15.008 C31.232,15.872 30.864,16.864 30.864,18 L38.736,18 L38.736,16.464 L33.024,16.464 C33.264,15.84 34,15.12 35.232,14.304 C36.368,13.536 37.152,12.928 37.6,12.464 C38.336,11.648 38.72,10.752 38.72,9.76 C38.72,8.752 38.368,7.936 37.68,7.296 C36.976,6.656 36.064,6.352 34.976,6.352 Z" id="形状结合" fill="#FA6400"></path>
    </g>
</svg>