<?xml version="1.0" encoding="UTF-8"?>
<svg width="16px" height="16px" viewBox="0 0 16 16" version="1.1" xmlns="http://www.w3.org/2000/svg" xmlns:xlink="http://www.w3.org/1999/xlink">
    <path d="M13.4567278,5.92378909 L12.8109064,5.92378909 C12.5149405,5.92378909 12.2011062,5.69251287 12.1127134,5.40960822 L11.7423804,4.50880736 C11.6023433,4.24792979 11.6596485,3.86352358 11.8679647,3.65410046 L12.3263585,3.19684524 C12.5361769,2.98683705 12.5361769,2.64435024 12.3263585,2.43492713 L11.5647882,1.67413173 C11.3553493,1.46505649 11.0130681,1.46505649 10.8032496,1.67413173 L10.3452512,2.13192459 C10.1365555,2.3412054 9.75142187,2.39827335 9.48995923,2.25828371 L8.59029689,1.88776102 C8.30835682,1.80030109 8.07611601,1.48610317 8.07611601,1.18994751 L8.07611603,0.544126102 C8.07611603,0.248697823 7.8332649,0.00565695806 7.53843751,0.00565695806 L6.46271681,0.00565695806 C6.16637141,0.00565695806 5.92389978,0.248697823 5.92389978,0.544126102 L5.92389978,1.18994752 C5.92389978,1.48610318 5.69317698,1.8003011 5.41011423,1.88776104 L4.50928174,2.25828372 C4.24826186,2.39827337 3.86423514,2.34155328 3.65553941,2.1319246 L3.19603878,1.67413174 C2.98694773,1.4650565 2.6446823,1.4650565 2.43559126,1.67413174 L1.67479586,2.43492715 C1.46535693,2.64436608 1.46535693,2.98683706 1.67479586,3.19611787 L2.13165578,3.6541163 C2.34186953,3.86355523 2.39879517,4.24794563 2.2584102,4.5088232 L1.88768195,5.41039888 C1.80001645,5.69287657 1.48657755,5.92434256 1.18986844,5.92434256 L0.544394898,5.92380493 C0.248444804,5.92380493 0.00597319426,6.16567567 0.00597319426,6.46184714 L0.00597319426,7.53780504 C0.00597319426,7.83377094 0.248428996,8.0764165 0.544394898,8.0764165 L1.18986844,8.0764165 C1.48657755,8.07700157 1.79924163,8.30826199 1.88651181,8.59040762 L2.25839438,9.49119267 C2.39765664,9.75265531 2.3411105,10.1381842 2.13163995,10.3464846 L1.67365735,10.8040877 C1.46534112,11.0135583 1.46534112,11.3558395 1.67365735,11.565658 L2.43557546,12.3270384 C2.64466651,12.5361137 2.98693194,12.5361137 3.19602298,12.3270384 L3.65474878,11.8688503 C3.86309663,11.6601545 4.24745541,11.6030391 4.50740004,11.7441989 L5.41008261,12.1147216 C5.69314537,12.202735 5.92386817,12.5161739 5.92386817,12.8125351 L5.92386817,13.456459 C5.92386817,13.7518715 6.16554915,13.9943431 6.46268519,13.9943431 L7.5384059,13.9943431 C7.83324909,13.9943431 8.07608441,13.7518873 8.07608441,13.456459 L8.07608441,12.8125351 C8.07608441,12.5161897 8.30832522,12.202735 8.59026528,12.1147216 L9.49184096,11.7441989 C9.75252878,11.6030391 10.1380577,11.6601545 10.3471329,11.8688503 L10.803218,12.3270384 C11.0130365,12.5361137 11.3553335,12.5361137 11.5647566,12.3270384 L12.3263269,11.565658 C12.5361453,11.3558395 12.5361453,11.0135583 12.3263269,10.8040877 L11.8679331,10.3464846 C11.6596327,10.1381842 11.6023117,9.75265531 11.7423488,9.49119267 L12.1126818,8.59040762 C12.2010746,8.30827781 12.5156521,8.07700157 12.8108748,8.07700157 L13.4566962,8.07700157 C13.7519347,8.07700157 13.9939952,7.83489365 13.9939952,7.53892774 L13.9939952,6.46184714 C13.9940268,6.16565983 13.7519663,5.92378909 13.4567278,5.92378909 M9.69144439,6.99916193 C9.69144439,8.48528489 8.4870401,9.68886693 7.0015022,9.68886693 C5.51558481,9.68886693 4.31121214,8.48526909 4.31121214,6.99916193 C4.31121214,5.51378216 5.51558481,4.30940949 7.0015022,4.30940949 C8.4870401,4.30940949 9.69144439,5.51378216 9.69144439,6.99916193" id="Shape"></path>
</svg>