<?xml version="1.0" encoding="UTF-8"?>
<svg width="9px" height="16px" viewBox="0 0 9 16" version="1.1" xmlns="http://www.w3.org/2000/svg" xmlns:xlink="http://www.w3.org/1999/xlink">
    <!-- Generator: Sketch 54.1 (76490) - https://sketchapp.com -->
    <title>形状</title>
    <desc>Created with Sketch.</desc>
    <g id="云HIS体温监测" stroke="none" stroke-width="1" fill="none" fill-rule="evenodd">
        <path d="M4.96655518,9.84903819 L4.96655518,5.5572698 C4.96655518,5.29635778 4.7618729,5.08387853 4.51053511,5.08387853 L4.47441471,5.08387853 C4.22909699,5.08387853 4.03193979,5.29010839 4.03193979,5.54320867 L4.03193979,9.84903819 C3.35167224,10.0537057 2.8535117,10.6848941 2.8535117,11.4379455 C2.8535117,12.3581682 3.58946488,13.1034079 4.49999999,13.1034079 C5.40903009,13.1034079 6.14498327,12.3566058 6.14498327,11.4379455 C6.14347825,10.6848941 5.64531772,10.055268 4.96655518,9.84903819 L4.96655518,9.84903819 Z M7.38812709,7.94766136 C7.28578595,7.86016991 7.22558529,7.7414315 7.22558528,7.61956841 L7.22558528,2.7669173 C7.22558528,1.24050386 6.00200668,0 4.49849498,0 C2.99498327,0 1.77140468,1.24050386 1.77140468,2.7669173 L1.77140468,7.48208183 C1.77140468,7.68674934 1.69013378,7.87579338 1.55016722,7.99921883 C0.564381267,8.86319695 0,10.1177619 0,11.4395079 C0,13.9533249 2.01822743,16 4.5,16 C6.98177255,16 9,13.9548872 9,11.4395079 C8.99849499,10.086515 8.41153846,8.81320183 7.38812709,7.94766136 Z M4.49849498,14.5517039 C2.79782608,14.5517039 1.41622073,13.1549653 1.41622073,11.4379455 C1.41622073,10.3677375 1.95501671,9.38345866 2.85652173,8.80695245 L3.07474915,8.66790353 C3.14548494,8.62259545 3.18913043,8.54135339 3.18913043,8.45542428 L3.18913043,2.7669173 C3.18913043,2.03886339 3.77759196,1.44673372 4.49999999,1.44673372 C5.22240802,1.44673372 5.81086956,2.03886339 5.81086956,2.7669173 L5.81086956,8.45542428 C5.81086956,8.54135339 5.85451505,8.62259545 5.92525083,8.66790353 L6.14347825,8.80695245 C7.04498327,9.38345866 7.58227424,10.3661752 7.58227424,11.4379455 C7.58076923,13.1549653 6.19765885,14.5517039 4.49849498,14.5517039 L4.49849498,14.5517039 Z" id="形状" fill="#FFFFFF" fill-rule="nonzero"></path>
    </g>
</svg>