<?xml version="1.0" encoding="UTF-8"?>
<svg width="16px" height="16px" viewBox="0 0 16 16" version="1.1" xmlns="http://www.w3.org/2000/svg" xmlns:xlink="http://www.w3.org/1999/xlink">
    <path d="M8.34106899,1 C10.4423465,1 12.1456762,2.67889424 12.1456762,4.7496442 C12.1456762,6.8208057 10.4423636,8.49978566 8.34106899,8.49978566 C6.23985993,8.49978566 4.53656449,6.82082284 4.53656449,4.7496442 C4.53654738,2.67841412 6.24042464,1 8.34106899,1 Z M8.34106899,1 C10.4423465,1 12.1456762,2.67889424 12.1456762,4.7496442 C12.1456762,6.8208057 10.4423636,8.49978566 8.34106899,8.49978566 C6.23985993,8.49978566 4.53656449,6.82082284 4.53656449,4.7496442 C4.53654738,2.67841412 6.24042464,1 8.34106899,1 Z M6.91444612,9.75002714 L10.0855539,9.75002714 C12.7998815,9.75002714 15,11.9180852 15,14.5935512 L15,14.9055886 C15,15.9599279 12.7994195,16 10.0855539,16 L6.91444612,16 C4.20003291,16 2,15.9984568 2,14.9055886 L2,14.5935512 C2.00003421,11.9180852 4.20005002,9.75002714 6.91444612,9.75002714 Z"></path>
</svg>