<?xml version="1.0" encoding="UTF-8"?>
<svg width="16px" height="16px" viewBox="0 0 16 16" version="1.1" xmlns="http://www.w3.org/2000/svg" xmlns:xlink="http://www.w3.org/1999/xlink">
    <path d="M12.99875,0 L1.00125,0 C0.448901916,0.00152071707 0.00151084228,0.451835915 0,1.00779412 L0,9.30919934 C0.00151084228,9.86515754 0.448901916,10.3154727 1.00125,10.3169935 L3.748,10.3169935 C4.19375001,10.3169935 4.41675,10.859768 4.101,11.1765752 L3.20150001,12.0791863 C3.01,12.4146144 3.25050001,12.8333333 3.63500001,12.8333333 L10.47825,12.8333333 C10.86275,12.8333333 11.10325,12.414866 10.91175,12.0794379 L10.01225,11.1768268 C9.6965,10.8600196 9.91950001,10.3172451 10.36525,10.3172451 L12.99875,10.3172451 C13.5510981,10.3157244 13.9984892,9.86540918 14,9.30945098 L14,1.00779412 C13.9984892,0.451835915 13.5510981,0.00152071707 12.99875,0 Z M11.65875,8.30668954 L2.15875,8.30668954 C1.88375001,8.30668954 1.65875001,8.08021895 1.65875001,7.80342157 C1.65875001,7.52662419 1.88375001,7.3001536 2.15875,7.3001536 L11.65875,7.3001536 C11.93375,7.3001536 12.15875,7.52662419 12.15875,7.80342157 C12.15875,8.08021895 11.93375,8.30668954 11.65875,8.30668954 Z"></path>
</svg>